<mxfile host="app.diagrams.net" modified="2023-05-25T02:51:35.380Z" agent="Mozilla/5.0 (Macintosh; Intel Mac OS X 10_15_7) AppleWebKit/537.36 (KHTML, like Gecko) Chrome/113.0.0.0 Safari/537.36" etag="mx1LVi0QDFY7Bq8ws6f8" version="21.3.3" type="device">
  <diagram name="Page-1" id="M1YBR3syEZdGdIizRY6H">
    <mxGraphModel dx="954" dy="534" grid="1" gridSize="10" guides="1" tooltips="1" connect="1" arrows="1" fold="1" page="1" pageScale="1" pageWidth="850" pageHeight="1100" math="0" shadow="0">
      <root>
        <mxCell id="0" />
        <mxCell id="1" parent="0" />
        <mxCell id="GkWTKet2XOwHcU4-RyTz-6" style="edgeStyle=orthogonalEdgeStyle;rounded=0;orthogonalLoop=1;jettySize=auto;html=1;exitX=0.75;exitY=0;exitDx=0;exitDy=0;entryX=0.75;entryY=1;entryDx=0;entryDy=0;curved=1;" edge="1" parent="1" source="GkWTKet2XOwHcU4-RyTz-2" target="GkWTKet2XOwHcU4-RyTz-1">
          <mxGeometry relative="1" as="geometry" />
        </mxCell>
        <mxCell id="GkWTKet2XOwHcU4-RyTz-16" value="Open" style="edgeLabel;html=1;align=center;verticalAlign=middle;resizable=0;points=[];" vertex="1" connectable="0" parent="GkWTKet2XOwHcU4-RyTz-6">
          <mxGeometry x="-0.2833" y="-1" relative="1" as="geometry">
            <mxPoint y="-17" as="offset" />
          </mxGeometry>
        </mxCell>
        <mxCell id="GkWTKet2XOwHcU4-RyTz-7" style="edgeStyle=orthogonalEdgeStyle;rounded=0;orthogonalLoop=1;jettySize=auto;html=1;exitX=0.25;exitY=1;exitDx=0;exitDy=0;entryX=0.25;entryY=0;entryDx=0;entryDy=0;curved=1;" edge="1" parent="1" source="GkWTKet2XOwHcU4-RyTz-1" target="GkWTKet2XOwHcU4-RyTz-2">
          <mxGeometry relative="1" as="geometry" />
        </mxCell>
        <mxCell id="GkWTKet2XOwHcU4-RyTz-17" value="Close" style="edgeLabel;html=1;align=center;verticalAlign=middle;resizable=0;points=[];" vertex="1" connectable="0" parent="GkWTKet2XOwHcU4-RyTz-7">
          <mxGeometry y="-4" relative="1" as="geometry">
            <mxPoint as="offset" />
          </mxGeometry>
        </mxCell>
        <mxCell id="GkWTKet2XOwHcU4-RyTz-12" style="edgeStyle=orthogonalEdgeStyle;rounded=0;orthogonalLoop=1;jettySize=auto;html=1;exitX=1;exitY=0.5;exitDx=0;exitDy=0;entryX=0.5;entryY=0;entryDx=0;entryDy=0;" edge="1" parent="1" source="GkWTKet2XOwHcU4-RyTz-1" target="GkWTKet2XOwHcU4-RyTz-4">
          <mxGeometry relative="1" as="geometry" />
        </mxCell>
        <mxCell id="GkWTKet2XOwHcU4-RyTz-14" value="Process" style="edgeLabel;html=1;align=center;verticalAlign=middle;resizable=0;points=[];" vertex="1" connectable="0" parent="GkWTKet2XOwHcU4-RyTz-12">
          <mxGeometry x="-0.2848" y="2" relative="1" as="geometry">
            <mxPoint as="offset" />
          </mxGeometry>
        </mxCell>
        <mxCell id="GkWTKet2XOwHcU4-RyTz-1" value="Open" style="rounded=1;whiteSpace=wrap;html=1;" vertex="1" parent="1">
          <mxGeometry x="200" y="70" width="120" height="60" as="geometry" />
        </mxCell>
        <mxCell id="GkWTKet2XOwHcU4-RyTz-10" style="edgeStyle=orthogonalEdgeStyle;rounded=0;orthogonalLoop=1;jettySize=auto;html=1;exitX=0.75;exitY=0;exitDx=0;exitDy=0;entryX=0.75;entryY=1;entryDx=0;entryDy=0;" edge="1" parent="1" source="GkWTKet2XOwHcU4-RyTz-3" target="GkWTKet2XOwHcU4-RyTz-2">
          <mxGeometry relative="1" as="geometry" />
        </mxCell>
        <mxCell id="GkWTKet2XOwHcU4-RyTz-18" value="Unlock" style="edgeLabel;html=1;align=center;verticalAlign=middle;resizable=0;points=[];" vertex="1" connectable="0" parent="GkWTKet2XOwHcU4-RyTz-10">
          <mxGeometry x="0.0571" y="-1" relative="1" as="geometry">
            <mxPoint as="offset" />
          </mxGeometry>
        </mxCell>
        <mxCell id="GkWTKet2XOwHcU4-RyTz-2" value="Closed" style="rounded=1;whiteSpace=wrap;html=1;" vertex="1" parent="1">
          <mxGeometry x="200" y="250" width="120" height="60" as="geometry" />
        </mxCell>
        <mxCell id="GkWTKet2XOwHcU4-RyTz-11" style="edgeStyle=orthogonalEdgeStyle;rounded=0;orthogonalLoop=1;jettySize=auto;html=1;exitX=0.25;exitY=1;exitDx=0;exitDy=0;entryX=0.25;entryY=0;entryDx=0;entryDy=0;" edge="1" parent="1" source="GkWTKet2XOwHcU4-RyTz-2" target="GkWTKet2XOwHcU4-RyTz-3">
          <mxGeometry relative="1" as="geometry" />
        </mxCell>
        <mxCell id="GkWTKet2XOwHcU4-RyTz-19" value="Lock" style="edgeLabel;html=1;align=center;verticalAlign=middle;resizable=0;points=[];" vertex="1" connectable="0" parent="GkWTKet2XOwHcU4-RyTz-11">
          <mxGeometry x="0.1714" relative="1" as="geometry">
            <mxPoint as="offset" />
          </mxGeometry>
        </mxCell>
        <mxCell id="GkWTKet2XOwHcU4-RyTz-3" value="Locked" style="rounded=1;whiteSpace=wrap;html=1;" vertex="1" parent="1">
          <mxGeometry x="200" y="400" width="120" height="60" as="geometry" />
        </mxCell>
        <mxCell id="GkWTKet2XOwHcU4-RyTz-13" style="edgeStyle=orthogonalEdgeStyle;rounded=0;orthogonalLoop=1;jettySize=auto;html=1;exitX=0.5;exitY=1;exitDx=0;exitDy=0;entryX=1;entryY=0.5;entryDx=0;entryDy=0;" edge="1" parent="1" source="GkWTKet2XOwHcU4-RyTz-4" target="GkWTKet2XOwHcU4-RyTz-2">
          <mxGeometry relative="1" as="geometry" />
        </mxCell>
        <mxCell id="GkWTKet2XOwHcU4-RyTz-15" value="Complete" style="edgeLabel;html=1;align=center;verticalAlign=middle;resizable=0;points=[];" vertex="1" connectable="0" parent="GkWTKet2XOwHcU4-RyTz-13">
          <mxGeometry x="0.2242" y="-2" relative="1" as="geometry">
            <mxPoint as="offset" />
          </mxGeometry>
        </mxCell>
        <mxCell id="GkWTKet2XOwHcU4-RyTz-4" value="Processed" style="rounded=1;whiteSpace=wrap;html=1;" vertex="1" parent="1">
          <mxGeometry x="365" y="160" width="120" height="60" as="geometry" />
        </mxCell>
      </root>
    </mxGraphModel>
  </diagram>
</mxfile>
